<svg width="374" height="63" viewBox="0 0 374 63" fill="none" xmlns="http://www.w3.org/2000/svg">
    <rect width="374" height="63" rx="31.5" fill="#7583CA"/>
    <path d="M44.6776 23.4633H46.8745V19.637C46.4955 19.5848 45.192 19.4675 43.6739 19.4675C40.5063 19.4675 38.3365 21.4599 38.3365 25.1218V28.4919H34.8411V32.7694H38.3365V43.5324H42.6221V32.7704H45.9761L46.5085 28.4929H42.6211V25.5459C42.6221 24.3096 42.955 23.4633 44.6776 23.4633Z" fill="white"/>
    <path d="M102.212 30.682H100.462C100.126 29.3567 99.295 28.694 97.9697 28.694C96.971 28.694 96.1963 29.0907 95.6457 29.884C95.1697 30.5747 94.9317 31.4473 94.9317 32.502C94.9317 33.5567 95.1697 34.4293 95.6457 35.12C96.1963 35.9133 96.971 36.31 97.9697 36.31C98.7163 36.31 99.3183 36.0533 99.7757 35.54C100.196 35.0733 100.443 34.4573 100.518 33.692H102.226C102.151 34.896 101.722 35.8713 100.938 36.618C100.163 37.3647 99.1737 37.738 97.9697 37.738C96.5137 37.738 95.3423 37.22 94.4557 36.184C93.6063 35.204 93.1817 33.9767 93.1817 32.502C93.1817 31.018 93.6063 29.786 94.4557 28.806C95.3423 27.7793 96.5137 27.266 97.9697 27.266C99.1177 27.266 100.079 27.5647 100.854 28.162C101.656 28.7873 102.109 29.6273 102.212 30.682ZM108.773 27.266C110.229 27.266 111.401 27.7793 112.287 28.806C113.137 29.7953 113.561 31.0273 113.561 32.502C113.561 33.9767 113.137 35.204 112.287 36.184C111.401 37.22 110.229 37.738 108.773 37.738C107.317 37.738 106.146 37.22 105.259 36.184C104.41 35.204 103.985 33.9767 103.985 32.502C103.985 31.0273 104.41 29.7953 105.259 28.806C106.146 27.7793 107.317 27.266 108.773 27.266ZM108.773 28.694C107.775 28.694 107 29.0907 106.449 29.884C105.973 30.5747 105.735 31.4473 105.735 32.502C105.735 33.5567 105.973 34.4293 106.449 35.12C107 35.9133 107.775 36.31 108.773 36.31C109.772 36.31 110.547 35.9133 111.097 35.12C111.573 34.4293 111.811 33.5567 111.811 32.502C111.811 31.4473 111.573 30.5747 111.097 29.884C110.547 29.0907 109.772 28.694 108.773 28.694ZM115.784 37.5V27.504H117.632L122.196 34.868H122.224V27.504H123.89V37.5H122.042L117.492 30.15H117.45V37.5H115.784ZM125.705 29.016V27.504H133.797V29.016H130.619V37.5H128.869V29.016H125.705ZM135.656 37.5V27.504H137.406V37.5H135.656ZM140.183 37.5V27.504H142.031L146.595 34.868H146.623V27.504H148.289V37.5H146.441L141.891 30.15H141.849V37.5H140.183ZM150.944 33.902V27.504H152.694V33.328C152.694 34.2333 152.802 34.882 153.016 35.274C153.362 35.9087 154.038 36.226 155.046 36.226C156.054 36.226 156.731 35.9087 157.076 35.274C157.291 34.882 157.398 34.2333 157.398 33.328V27.504H159.148V33.902C159.148 35.1527 158.775 36.114 158.028 36.786C157.31 37.4207 156.316 37.738 155.046 37.738C153.777 37.738 152.788 37.4207 152.078 36.786C151.322 36.114 150.944 35.1527 150.944 33.902ZM161.86 37.5V27.504H169.056V29.016H163.61V31.634H168.65V33.062H163.61V35.988H169.154V37.5H161.86ZM177.627 37.5L174.995 27.504H176.773L178.579 35.148H178.607L180.623 27.504H182.415L184.375 35.148H184.403L186.265 27.504H188.043L185.285 37.5H183.507L181.505 29.856H181.477L179.433 37.5H177.627ZM189.895 37.5V27.504H191.645V37.5H189.895ZM193.54 29.016V27.504H201.632V29.016H198.454V37.5H196.704V29.016H193.54ZM203.449 37.5V27.504H205.199V31.48H209.749V27.504H211.499V37.5H209.749V32.992H205.199V37.5H203.449ZM218.891 37.5V27.504H225.793V29.016H220.641V31.634H225.163V33.062H220.641V37.5H218.891ZM231.459 29.226L229.947 33.524H232.999L231.501 29.226H231.459ZM226.727 37.5L230.563 27.504H232.425L236.275 37.5H234.399L233.461 34.854H229.471L228.533 37.5H226.727ZM246.425 30.682H244.675C244.339 29.3567 243.509 28.694 242.183 28.694C241.185 28.694 240.41 29.0907 239.859 29.884C239.383 30.5747 239.145 31.4473 239.145 32.502C239.145 33.5567 239.383 34.4293 239.859 35.12C240.41 35.9133 241.185 36.31 242.183 36.31C242.93 36.31 243.532 36.0533 243.989 35.54C244.409 35.0733 244.657 34.4573 244.731 33.692H246.439C246.365 34.896 245.935 35.8713 245.151 36.618C244.377 37.3647 243.387 37.738 242.183 37.738C240.727 37.738 239.556 37.22 238.669 36.184C237.82 35.204 237.395 33.9767 237.395 32.502C237.395 31.018 237.82 29.786 238.669 28.806C239.556 27.7793 240.727 27.266 242.183 27.266C243.331 27.266 244.293 27.5647 245.067 28.162C245.87 28.7873 246.323 29.6273 246.425 30.682ZM248.731 37.5V27.504H255.927V29.016H250.481V31.634H255.521V33.062H250.481V35.988H256.025V37.5H248.731ZM259.999 32.95V36.072H263.093C264.213 36.072 264.773 35.5447 264.773 34.49C264.773 33.4633 264.213 32.95 263.093 32.95H259.999ZM258.249 37.5V27.504H263.107C264.031 27.504 264.755 27.714 265.277 28.134C265.809 28.554 266.075 29.17 266.075 29.982C266.075 30.99 265.599 31.6993 264.647 32.11V32.138C265.898 32.4087 266.523 33.2673 266.523 34.714C266.523 35.5447 266.234 36.2027 265.655 36.688C265.011 37.2293 264.073 37.5 262.841 37.5H258.249ZM259.999 28.932V31.69H262.855C263.285 31.69 263.635 31.5687 263.905 31.326C264.185 31.0833 264.325 30.7427 264.325 30.304C264.325 29.3893 263.835 28.932 262.855 28.932H259.999ZM273.063 27.266C274.519 27.266 275.69 27.7793 276.577 28.806C277.426 29.7953 277.851 31.0273 277.851 32.502C277.851 33.9767 277.426 35.204 276.577 36.184C275.69 37.22 274.519 37.738 273.063 37.738C271.607 37.738 270.435 37.22 269.549 36.184C268.699 35.204 268.275 33.9767 268.275 32.502C268.275 31.0273 268.699 29.7953 269.549 28.806C270.435 27.7793 271.607 27.266 273.063 27.266ZM273.063 28.694C272.064 28.694 271.289 29.0907 270.739 29.884C270.263 30.5747 270.025 31.4473 270.025 32.502C270.025 33.5567 270.263 34.4293 270.739 35.12C271.289 35.9133 272.064 36.31 273.063 36.31C274.061 36.31 274.836 35.9133 275.387 35.12C275.863 34.4293 276.101 33.5567 276.101 32.502C276.101 31.4473 275.863 30.5747 275.387 29.884C274.836 29.0907 274.061 28.694 273.063 28.694ZM284.399 27.266C285.855 27.266 287.027 27.7793 287.913 28.806C288.763 29.7953 289.187 31.0273 289.187 32.502C289.187 33.9767 288.763 35.204 287.913 36.184C287.027 37.22 285.855 37.738 284.399 37.738C282.943 37.738 281.772 37.22 280.885 36.184C280.036 35.204 279.611 33.9767 279.611 32.502C279.611 31.0273 280.036 29.7953 280.885 28.806C281.772 27.7793 282.943 27.266 284.399 27.266ZM284.399 28.694C283.401 28.694 282.626 29.0907 282.075 29.884C281.599 30.5747 281.361 31.4473 281.361 32.502C281.361 33.5567 281.599 34.4293 282.075 35.12C282.626 35.9133 283.401 36.31 284.399 36.31C285.398 36.31 286.173 35.9133 286.723 35.12C287.199 34.4293 287.437 33.5567 287.437 32.502C287.437 31.4473 287.199 30.5747 286.723 29.884C286.173 29.0907 285.398 28.694 284.399 28.694ZM291.48 37.5V27.504H293.23V32.054L297.682 27.504H299.838L295.848 31.494L300.118 37.5H297.934L294.658 32.726L293.23 34.14V37.5H291.48Z" fill="#F6F1FB"/>
</svg>
