<svg width="140" height="123" viewBox="0 0 140 123" fill="none" xmlns="http://www.w3.org/2000/svg">
    <path fill-rule="evenodd" clip-rule="evenodd" d="M43.5064 30.827C45.5401 35.5666 49.679 37.2268 53.2485 36.4144C56.0533 35.776 59.7045 29.889 59.5756 27.1702C59.19 19.015 50.2241 3.47878 45.3448 2.44685C41.4025 5.48681 40.2854 23.3179 43.5064 30.827Z" fill="#FEDEA6"/>
    <path d="M51.497 36.8181C50.1872 36.8181 48.8837 36.502 47.7041 35.8864C45.8032 34.8938 44.2852 33.1727 43.3137 30.9083C41.8085 27.3987 41.1242 21.2832 41.5302 14.9469C41.8494 9.9522 42.9856 4.00174 45.2159 2.28058L45.2925 2.22092L45.387 2.24123C50.3787 3.29729 59.3931 18.8995 59.7837 27.1588C59.9191 30.0172 56.19 35.9562 53.2945 36.6163C52.7034 36.7521 52.0996 36.8181 51.497 36.8181ZM45.3972 2.67152C43.6609 4.11471 42.3434 8.80603 41.949 14.9735C41.5481 21.2489 42.2183 27.292 43.6992 30.7445C45.4202 34.7555 48.6335 36.3954 51.5366 36.3954C52.1085 36.3954 52.6677 36.332 53.2026 36.2101C55.8899 35.5983 59.4939 29.8433 59.3675 27.1778C59.1914 23.4397 57.1206 17.7165 53.9648 12.2395C50.8702 6.86908 47.6007 3.2224 45.3972 2.67152Z" fill="#F5C371"/>
    <path d="M45.4803 2.3773L45.0723 2.47111L52.9786 36.4396L53.3866 36.3458L45.4803 2.3773Z" fill="#F9CF88"/>
    <path d="M48.4535 15.4812L48.1152 15.235C48.1407 15.2007 50.671 11.7609 52.3728 9.49017L52.7086 9.73895C51.0081 12.0084 48.479 15.447 48.4535 15.4812Z" fill="#F9CF88"/>
    <path d="M53.5088 11.2812L48.5553 17.067L48.8742 17.3369L53.8277 11.551L53.5088 11.2812Z" fill="#F9CF88"/>
    <path d="M41.6733 19.5125L41.4684 19.8756L50.3452 24.8284L50.5502 24.4653L41.6733 19.5125Z" fill="#F9CF88"/>
    <path d="M58.7206 23.1924L51.6557 30.348L51.9545 30.6396L59.0194 23.484L58.7206 23.1924Z" fill="#F9CF88"/>
    <path d="M42.1116 25.2337L41.9647 25.6236L51.3704 29.1255L51.5172 28.7357L42.1116 25.2337Z" fill="#F9CF88"/>
    <path d="M47.3416 12.0605C46.6139 11.4004 44.6964 9.65134 42.6167 7.6522L42.9078 7.35265C44.9836 9.34671 46.8986 11.0933 47.625 11.752L47.3416 12.0605Z" fill="#F9CF88"/>
    <path fill-rule="evenodd" clip-rule="evenodd" d="M43.9929 26.3274C43.2257 25.5544 42.3908 24.7789 41.5035 24.0097C33.2691 16.8712 20.5677 10.2975 15.8914 11.78C13.4364 17.6695 23.4517 38.4225 31.8546 44.7677C37.159 48.7723 42.8427 48.0057 46.3075 44.8401C46.8884 44.3095 47.4067 43.7104 47.851 43.0567C50.0557 39.8073 50.4221 35.1706 47.4527 30.5161C46.5948 29.1681 45.4087 27.7528 43.9929 26.3274Z" fill="#FEDEA6"/>
    <path d="M39.4072 47.7074C36.785 47.7074 34.1385 46.7529 31.7282 44.934C27.8203 41.9829 23.1772 35.5691 19.6128 28.1932C16.8118 22.3989 14.3121 15.0243 15.6973 11.7L15.7343 11.6112L15.8275 11.582C18.0731 10.8699 22.2031 11.898 27.4552 14.476C32.3882 16.8978 37.5586 20.316 41.64 23.8535C42.5414 24.6354 43.3827 25.4186 44.141 26.1814C45.6168 27.6665 46.79 29.0868 47.6301 30.4031C50.3787 34.7123 50.5255 39.4849 48.0246 43.1722C47.5739 43.8373 47.0428 44.4504 46.4492 44.9924C44.6312 46.6526 42.2631 47.6147 39.7774 47.701C39.6549 47.7048 39.531 47.7074 39.4072 47.7074ZM16.0484 11.9501C15.0028 14.6714 16.5054 20.8047 19.9894 28.013C23.527 35.3318 28.1229 41.6884 31.9809 44.6014C37.3812 48.6784 42.9958 47.5817 46.1658 44.6865C46.7364 44.1648 47.2445 43.5771 47.6773 42.9399C50.0825 39.3948 49.9319 34.7923 47.2764 30.6265C46.453 29.3356 45.2976 27.9381 43.8435 26.4746C43.0929 25.7194 42.2592 24.9426 41.3656 24.1683C33.5104 17.3573 20.8052 10.5843 16.0484 11.9501Z" fill="#F5C371"/>
    <path d="M16.0461 11.6392L15.7371 11.9202L46.1555 44.9817L46.4645 44.7007L16.0461 11.6392Z" fill="#F5C371"/>
    <path d="M18.2646 24.8741L18.2493 24.4577C21.9056 24.3194 27.4118 24.1607 27.4667 24.1594L27.4782 24.5758C27.4233 24.5783 21.9196 24.737 18.2646 24.8741Z" fill="#F5C371"/>
    <path d="M29.1033 25.9582L19.3341 26.96L19.3771 27.3741L29.1463 26.3723L29.1033 25.9582Z" fill="#F5C371"/>
    <path d="M36.7765 20.4395L35.5861 33.3914L36.0031 33.4293L37.1935 20.4774L36.7765 20.4395Z" fill="#F5C371"/>
    <path d="M40.9909 38.8977L28.2248 41.1244L28.2971 41.5345L41.0632 39.3078L40.9909 38.8977Z" fill="#F5C371"/>
    <path d="M42.5426 25.0724L39.4243 37.5251L39.8306 37.6257L42.9489 25.173L42.5426 25.0724Z" fill="#F5C371"/>
    <path d="M24.1756 21.0382C24.0032 19.7918 23.536 16.4992 22.9257 12.8678L23.3394 12.7993C23.9509 16.4358 24.4194 19.7334 24.5918 20.9824L24.1756 21.0382Z" fill="#F5C371"/>
    <path fill-rule="evenodd" clip-rule="evenodd" d="M111.26 93.8862C106.176 92.8783 102.462 95.3395 101.122 98.7273C100.069 101.389 102.895 107.709 105.225 109.138C112.212 113.426 130.172 114.838 133.784 111.415C133.485 106.465 119.313 95.4817 111.26 93.8862Z" fill="#FEDEA6"/>
    <path d="M124.675 113.54C117.924 113.54 109.456 111.98 105.115 109.316C102.666 107.813 99.8399 101.399 100.928 98.6511C101.635 96.864 102.972 95.3802 104.69 94.4752C106.587 93.475 108.872 93.2021 111.302 93.6831C115.065 94.4282 120.528 97.3209 125.559 101.23C129.526 104.312 133.824 108.604 133.994 111.406L134 111.503L133.93 111.57C132.499 112.921 128.927 113.54 124.675 113.54ZM109.032 93.8684C105.07 93.8684 102.354 96.1811 101.316 98.8035C100.307 101.355 103.049 107.56 105.333 108.962C108.536 110.927 114.456 112.459 120.786 112.961C126.993 113.454 131.866 112.829 133.566 111.331C133.348 109.091 130.197 105.362 125.3 101.557C120.317 97.6852 114.921 94.8242 111.219 94.0906C110.454 93.9383 109.724 93.8684 109.032 93.8684Z" fill="#F5C371"/>
    <path d="M101.259 98.4946L101.106 98.8824L133.767 111.573L133.92 111.185L101.259 98.4946Z" fill="#F5C371"/>
    <path d="M123.571 113.342C122.648 110.665 121.221 106.649 121.207 106.608L121.602 106.47C121.616 106.511 123.043 110.528 123.967 113.207L123.571 113.342Z" fill="#F5C371"/>
    <path d="M119.83 105.792L119.426 105.901L121.432 113.232L121.836 113.123L119.83 105.792Z" fill="#F5C371"/>
    <path d="M121.501 98.4L112.378 102.888L112.564 103.261L121.687 98.7731L121.501 98.4Z" fill="#F5C371"/>
    <path d="M107.058 100.844L106.647 100.925L108.599 110.762L109.01 110.682L107.058 100.844Z" fill="#F5C371"/>
    <path d="M116.453 95.5533L108.237 101.296L108.478 101.637L116.694 95.8939L116.453 95.5533Z" fill="#F5C371"/>
    <path d="M124.77 108.031L124.674 107.626C125.636 107.4 128.176 106.814 131.002 106.236L131.086 106.644C128.267 107.22 125.73 107.807 124.77 108.031Z" fill="#F5C371"/>
    <path fill-rule="evenodd" clip-rule="evenodd" d="M110.367 87.7542C105.992 90.5174 105.017 94.847 106.402 98.2182C107.491 100.866 113.925 103.495 116.602 102.927C124.634 101.228 138.599 89.912 138.833 84.9566C135.176 81.5816 117.298 83.3764 110.367 87.7542Z" fill="#FEDEA6"/>
    <path d="M115.753 103.214C112.646 103.214 107.227 100.771 106.209 98.297C105.479 96.5187 105.414 94.5285 106.027 92.6931C106.703 90.6673 108.165 88.8991 110.256 87.5791C113.495 85.533 119.454 83.8714 125.808 83.2419C130.818 82.7456 136.907 82.8954 138.977 84.8044L139.048 84.8704L139.043 84.9669C138.803 90.0352 124.781 101.409 116.647 103.13C116.379 103.188 116.079 103.214 115.753 103.214ZM130.606 83.4056C129.144 83.4056 127.546 83.4881 125.849 83.6557C119.557 84.2789 113.667 85.9176 110.481 87.9307C106.05 90.7295 105.337 95.0755 106.597 98.1396C107.64 100.677 113.935 103.279 116.56 102.723C120.241 101.944 125.586 98.985 130.511 95.0006C135.341 91.0937 138.431 87.2947 138.619 85.0443C137.373 83.9781 134.469 83.4056 130.606 83.4056Z" fill="#F5C371"/>
    <path d="M138.761 84.6905L106.331 97.9532L106.49 98.3382L138.92 85.0755L138.761 84.6905Z" fill="#F5C371"/>
    <path d="M132.789 93.3632C130.261 92.0622 126.439 90.1392 126.401 90.1189L126.59 89.747C126.628 89.766 130.451 91.6903 132.981 92.9926L132.789 93.3632Z" fill="#F5C371"/>
    <path d="M124.841 90.4806L124.625 90.8372L131.17 94.76L131.386 94.4035L124.841 90.4806Z" fill="#F5C371"/>
    <path d="M120.901 83.9747L117.423 93.4856L117.817 93.6278L121.295 84.117L120.901 83.9747Z" fill="#F5C371"/>
    <path d="M112.161 95.671L111.92 96.0114L120.167 101.783L120.408 101.443L112.161 95.671Z" fill="#F5C371"/>
    <path d="M115.279 85.4L113.327 95.1948L113.738 95.2757L115.69 85.4809L115.279 85.4Z" fill="#F5C371"/>
    <path d="M129.965 88.6999L129.614 88.4727C130.151 87.6502 131.58 85.481 133.223 83.1213L133.568 83.3587C131.929 85.7145 130.503 87.8787 129.965 88.6999Z" fill="#F5C371"/>
    <path fill-rule="evenodd" clip-rule="evenodd" d="M58.6876 42.9996C22.6876 29.9996 4.64886 38.0281 0.454337 64.4612C-3.74019 90.8942 21.5338 116.322 58.6877 121.5C88.4487 125.647 118.688 107 123.688 62.9997C128.688 18.9997 94.6876 55.9995 58.6876 42.9996Z" fill="#F5C371"/>
    <path fill-rule="evenodd" clip-rule="evenodd" d="M54.1594 42.731C53.83 42.7881 53.5019 42.8515 53.1738 42.9175C52.3325 43.0851 51.4937 43.2679 50.6588 43.4633C49.4881 43.7375 48.3238 44.0371 47.1685 44.3671C45.851 44.7428 44.5437 45.1578 43.2568 45.6288C41.8806 46.1327 40.5107 46.7038 39.2124 47.3842C39.1856 47.3981 39.1537 47.388 39.1396 47.3613C39.1256 47.3347 39.1358 47.303 39.1626 47.289C40.4648 46.6048 41.8385 46.0324 43.2198 45.5272C44.5079 45.0563 45.819 44.64 47.1378 44.263C48.2945 43.933 49.4613 43.6322 50.6333 43.358C51.4695 43.1625 52.3095 42.9785 53.1521 42.8122C53.4802 42.7475 53.8096 42.6827 54.1402 42.6256C54.1696 42.6205 54.1977 42.6396 54.2028 42.6688C54.2092 42.698 54.1887 42.7259 54.1594 42.731Z" fill="white"/>
    <path d="M39.1877 47.418C39.1584 47.418 39.1303 47.4028 39.115 47.3748C39.1047 47.3558 39.1022 47.3342 39.1086 47.3126C39.115 47.2923 39.129 47.2746 39.1481 47.2644C40.3227 46.6475 41.6504 46.0713 43.2092 45.5014C44.4271 45.0558 45.7101 44.642 47.1297 44.2371C48.2506 43.9173 49.4277 43.6126 50.6265 43.3321C51.4857 43.1316 52.3333 42.9475 53.1466 42.7863C53.444 42.7267 53.7913 42.6594 54.1347 42.5997C54.1564 42.5959 54.1781 42.601 54.196 42.6137C54.2138 42.6264 54.2253 42.6454 54.2292 42.6658C54.233 42.6873 54.2279 42.7089 54.2151 42.7267C54.2024 42.7444 54.1832 42.7559 54.1628 42.7597C53.8245 42.8181 53.4772 42.8866 53.1785 42.945C52.3665 43.1062 51.5214 43.289 50.6648 43.4908C49.4698 43.77 48.2953 44.0747 47.1757 44.3945C45.7586 44.7994 44.4807 45.212 43.2666 45.6549C41.7155 46.2223 40.3941 46.796 39.226 47.4091C39.2145 47.4142 39.2005 47.418 39.1877 47.418ZM54.15 42.6518C54.1487 42.6518 54.1475 42.6518 54.1449 42.6518C53.8015 42.7114 53.4555 42.7787 53.1581 42.8384C52.3461 42.9996 51.4997 43.1836 50.6405 43.3842C49.443 43.6647 48.2672 43.9693 47.1463 44.2892C45.728 44.6941 44.4462 45.1079 43.2296 45.5521C41.6733 46.122 40.3469 46.697 39.175 47.3126C39.1686 47.3152 39.1647 47.3215 39.1622 47.3279C39.1596 47.3342 39.1609 47.3418 39.1635 47.3482C39.1698 47.3609 39.1864 47.366 39.1992 47.3583C40.3699 46.744 41.6938 46.169 43.2475 45.6004C44.4628 45.1561 45.742 44.7436 47.1604 44.3387C48.2813 44.0188 49.4558 43.7142 50.652 43.4349C51.5099 43.2344 52.3563 43.0503 53.1683 42.8891C53.467 42.8295 53.8143 42.7622 54.1538 42.7026C54.1602 42.7013 54.1666 42.6975 54.1704 42.6924C54.1743 42.6873 54.1755 42.6797 54.1743 42.6734C54.173 42.667 54.1692 42.6607 54.1641 42.6569C54.1602 42.6531 54.1551 42.6518 54.15 42.6518Z" fill="white"/>
    <path fill-rule="evenodd" clip-rule="evenodd" d="M86.5641 30.9704C89.3868 26.0925 91.289 20.9785 91.875 19.3145C92.0639 17.4118 88.8634 11.3421 88.8634 11.3421C86.0624 11.4893 76.3318 11.9272 72.1189 11.1859C72.1189 11.1859 69.4915 9.67167 67.4361 11.3751C65.3807 13.0785 68.9209 15.4254 68.9209 15.4254L54.1501 42.6771C62.5249 52.3669 69.6817 47.0676 69.6817 47.0676L71.8137 40.7085C76.6944 42.7787 81.1014 39.0711 84.5496 34.1449C85.1585 33.1841 85.8581 32.0658 86.5641 30.9704Z" fill="#FDBCA0"/>
    <path fill-rule="evenodd" clip-rule="evenodd" d="M76.439 111.154L72.4226 116.598L90.5434 116.674C86.5092 113.42 76.439 111.154 76.439 111.154Z" fill="#FDBCA0"/>
    <path fill-rule="evenodd" clip-rule="evenodd" d="M86.5641 30.9704C85.9373 32.0544 85.2645 33.1257 84.5508 34.1462C82.4903 37.4032 81.8647 39.6118 81.8647 40.5206C81.8647 41.4294 82.3256 44.3678 82.3256 44.3678L87.7271 44.2536C87.7271 44.2536 87.7271 41.3533 88.1829 39.9151C88.6399 38.477 91.5328 26.1382 90.6187 25.9859C90.4068 25.9504 90.0774 26.1966 89.6702 26.6345C89.6842 26.6434 89.3408 27.0128 89.1378 27.259C88.3846 28.2046 87.468 29.5691 86.5641 30.9704Z" fill="#FDBCA0"/>
    <path fill-rule="evenodd" clip-rule="evenodd" d="M68.3119 2.06479C58.414 7.66619 39.1877 47.3355 39.1877 47.3355C45.0731 44.246 54.15 42.6771 54.15 42.6771L68.9208 15.4254C68.9208 15.4254 65.3807 13.0785 67.4361 11.3751C69.4915 9.67167 72.1188 11.1859 72.1188 11.1859C76.3318 11.9272 86.0624 11.488 88.8633 11.3421C88.8633 11.3421 92.0639 17.4118 91.875 19.3145C91.2877 20.9786 89.3868 26.0938 86.5641 30.9704C88.2493 28.357 89.9766 25.8793 90.62 25.9859C91.5341 26.137 88.6399 38.4771 88.1842 39.9152C87.7271 41.3533 87.7284 44.2536 87.7284 44.2536L88.8697 44.2295C88.8697 44.2295 89.4314 49.4158 90.1042 56.8323C90.4196 60.3 90.7579 64.2564 91.0758 68.3969C92.1609 67.0019 94.5393 63.7056 94.6568 61.4894C94.8087 58.6131 97.5496 34.9941 96.3317 18.9464C95.1125 2.89745 88.1842 4.03346 88.1842 4.03346C88.1842 4.03346 78.2097 -3.53661 68.3119 2.06479Z" fill="#3F4553"/>
    <path fill-rule="evenodd" clip-rule="evenodd" d="M84.5507 34.1462C81.1025 39.0723 76.6955 42.7799 71.8149 40.7097L69.6829 47.0689C69.6829 47.0689 78.4496 50.2878 80.4246 54.526C81.1076 48.4042 81.7128 44.3818 81.7128 44.3818L82.3268 44.3691C82.3268 44.3691 81.8659 41.4294 81.8659 40.5219C81.8647 39.6118 82.489 37.4032 84.5507 34.1462Z" fill="#3F4553"/>
    <path fill-rule="evenodd" clip-rule="evenodd" d="M35.5327 97.0982C34.0134 96.9636 32.4547 96.8545 30.8589 96.772C31.8763 95.6766 33.3164 92.8841 34.8458 89.4723C35.0488 91.79 35.3641 95.2552 35.5327 97.0982ZM36.4863 49.0744C31.3082 53.3139 7.8575 89.65 16.0804 107.515C16.0804 107.515 22.4764 113.874 72.4227 116.6L76.439 111.156L77.4488 109.787C77.4488 109.787 74.0772 107.44 67.6008 104.728C67.6008 104.728 69.2515 101.123 71.1741 96.8024C71.1741 96.8024 78.0591 109.485 84.3019 112.967C76.0088 104.945 78.5199 71.5866 80.4247 54.5273C78.451 50.2891 69.683 47.0702 69.683 47.0702C69.683 47.0702 62.5261 52.3695 54.1513 42.6797C54.1513 42.6797 45.0743 44.2486 39.189 47.338C38.1702 47.8699 37.2485 48.4499 36.4863 49.0744Z" fill="#63A6DC"/>
    <path fill-rule="evenodd" clip-rule="evenodd" d="M80.4234 54.526C78.5187 71.5853 76.0075 104.944 84.3006 112.966C84.3006 112.966 90.5434 118.113 92.0664 102.974C92.8184 95.4963 92.0473 81.0784 91.0745 68.3981C90.7566 64.2577 90.4183 60.3013 90.1029 56.8336C89.4302 49.4171 88.8684 44.2308 88.8684 44.2308L87.7271 44.2549L82.3256 44.3691L81.7116 44.3818C81.7116 44.3818 81.1064 48.4042 80.4234 54.526Z" fill="#63A6DC"/>
    <path fill-rule="evenodd" clip-rule="evenodd" d="M72.6269 65.1082C72.8873 66.0144 73.1452 66.9207 73.4018 67.8283C73.9597 69.802 74.5112 71.7783 75.0487 73.7584C75.5441 75.5773 76.0317 77.4013 76.4824 79.2316C76.6458 79.898 76.8067 80.5694 76.9458 81.2422C76.9931 81.4732 77.039 81.7055 77.0748 81.9377C77.0965 82.0799 77.1207 82.2386 77.1207 82.3833C77.1207 82.5368 77.0607 82.7501 77.0199 82.8986C76.9382 83.1905 76.8386 83.4799 76.7377 83.7655C76.4275 84.6426 76.079 85.5121 75.7292 86.3739C75.2619 87.5226 74.7806 88.665 74.2929 89.8048C73.7452 91.0868 73.1886 92.365 72.6294 93.6406C72.1635 94.703 71.6936 95.7642 71.2213 96.824C71.2098 96.8507 71.1779 96.8634 71.1498 96.8519C71.123 96.8405 71.1102 96.8088 71.1217 96.7809C71.5928 95.721 72.0626 94.6599 72.5286 93.5975C73.089 92.3218 73.6444 91.0436 74.1921 89.7617C74.6785 88.6218 75.1611 87.4807 75.627 86.332C75.9768 85.4714 76.3241 84.6033 76.6343 83.7287C76.7352 83.4457 76.8335 83.1575 76.9139 82.8694C76.9522 82.7336 77.0109 82.5254 77.0109 82.3833C77.0109 82.2449 76.988 82.0913 76.9662 81.9542C76.9305 81.7232 76.8845 81.4922 76.8373 81.2637C76.6994 80.5923 76.5386 79.9234 76.3752 79.257C75.9258 77.4279 75.4368 75.604 74.9427 73.7863C74.404 71.8075 73.8538 69.8312 73.2959 67.8575C73.0392 66.9499 72.7826 66.0436 72.5209 65.1374C72.5133 65.1094 72.5299 65.079 72.5579 65.0714C72.5899 65.0637 72.6192 65.0802 72.6269 65.1082Z" fill="#A7D1F3"/>
    <path d="M71.1728 96.8824C71.1614 96.8824 71.1511 96.8799 71.1397 96.8748C71.0988 96.857 71.0797 96.8088 71.0975 96.7669C71.598 95.6436 72.0576 94.6028 72.5044 93.5835C73.1248 92.1682 73.67 90.9142 74.1678 89.749C74.7411 88.4073 75.1981 87.317 75.6028 86.3206C75.922 85.5349 76.2896 84.621 76.6088 83.7185C76.7045 83.4469 76.8054 83.155 76.8884 82.8605C76.9267 82.7234 76.9841 82.5191 76.9841 82.382C76.9841 82.2436 76.9599 82.085 76.9394 81.9568C76.9011 81.7118 76.8539 81.4706 76.8118 81.2675C76.6713 80.5897 76.5067 79.903 76.3496 79.2621C75.8951 77.4127 75.3921 75.5392 74.9172 73.7914C74.4245 71.9776 73.8857 70.0381 73.2704 67.8625C73.0278 67.0045 72.7661 66.0804 72.4954 65.1437C72.4891 65.1234 72.4916 65.1005 72.5031 65.0815C72.5133 65.0624 72.5312 65.0485 72.5516 65.0421C72.572 65.0358 72.595 65.0383 72.6142 65.0497C72.6333 65.0599 72.6474 65.0777 72.6538 65.098C72.9295 66.0537 73.2002 67.0095 73.4287 67.8181C74.0427 69.9911 74.5815 71.9306 75.0755 73.7482C75.5517 75.4973 76.0547 77.3721 76.5092 79.2227C76.6675 79.865 76.8322 80.5542 76.9726 81.2333C77.0148 81.4389 77.0633 81.6826 77.1016 81.9301C77.1207 82.0558 77.1475 82.2284 77.1475 82.3794C77.1475 82.5381 77.0863 82.7564 77.0454 82.9011C76.9611 83.2007 76.8603 83.4951 76.7633 83.7693C76.4428 84.6756 76.0739 85.592 75.7547 86.379C75.35 87.3767 74.893 88.467 74.3185 89.8099C73.818 90.9789 73.2742 92.2343 72.6538 93.647C72.2069 94.6637 71.7473 95.7058 71.2456 96.8304C71.2341 96.8646 71.2048 96.8824 71.1728 96.8824ZM72.5759 65.0967C72.5733 65.0967 72.5708 65.0967 72.5682 65.098C72.5618 65.1005 72.5554 65.1043 72.5529 65.1107C72.5491 65.117 72.5491 65.1234 72.5503 65.1297C72.821 66.0677 73.0827 66.9905 73.3253 67.8498C73.9406 70.0254 74.4793 71.9649 74.9721 73.7787C75.447 75.5265 75.95 77.4 76.4045 79.2506C76.5616 79.8916 76.7275 80.5783 76.8667 81.2574C76.9088 81.4617 76.9573 81.7029 76.9956 81.9491C77.016 82.0786 77.0403 82.2385 77.0403 82.382C77.0403 82.5267 76.9816 82.7348 76.9433 82.8732C76.859 83.1715 76.7582 83.4647 76.6624 83.7376C76.342 84.6413 75.9743 85.5565 75.6551 86.3422C75.2504 87.3398 74.7934 88.4289 74.2202 89.7718C73.721 90.9383 73.1772 92.1924 72.5567 93.6076C72.1099 94.6269 71.649 95.6677 71.1499 96.791C71.1435 96.8037 71.1499 96.819 71.1626 96.8253C71.1754 96.8304 71.1907 96.8253 71.1971 96.8126C71.6975 95.688 72.1584 94.6459 72.604 93.6292C73.2231 92.2178 73.7683 90.9624 74.2674 89.7934C74.8419 88.4505 75.2977 87.3602 75.7036 86.3625C76.0228 85.5755 76.3918 84.6604 76.7122 83.7554C76.8092 83.4825 76.9101 83.188 76.9943 82.891C77.0339 82.7488 77.0939 82.5356 77.0939 82.3832C77.0939 82.236 77.0671 82.0659 77.0479 81.9428C77.0096 81.6966 76.9611 81.4529 76.919 81.2485C76.7786 80.5694 76.6139 79.8815 76.4556 79.2392C76.0011 77.3886 75.4981 75.5151 75.0219 73.766C74.5279 71.9496 73.9891 70.0101 73.3751 67.8371C73.1465 67.0286 72.8759 66.0728 72.6001 65.117C72.5989 65.1107 72.5937 65.1056 72.5874 65.1018C72.5848 65.098 72.5797 65.0967 72.5759 65.0967Z" fill="#A7D1F3"/>
    <path fill-rule="evenodd" clip-rule="evenodd" d="M30.9763 96.7238C36.6944 97.0195 42.3946 97.6948 48.0119 98.794C53.481 99.864 58.8915 101.339 64.1155 103.275C66.0573 103.994 67.9774 104.779 69.8617 105.635C71.2711 106.276 72.6627 106.959 74.0261 107.693C74.8891 108.158 75.7432 108.642 76.5769 109.158C76.8794 109.346 77.1871 109.539 77.4795 109.742C77.4922 109.751 77.4999 109.762 77.5011 109.777C77.5037 109.792 77.4999 109.805 77.4909 109.818L72.4661 116.631C72.4482 116.655 72.415 116.661 72.3907 116.643C72.3665 116.625 72.3614 116.592 72.3792 116.568L77.3722 109.799C77.0952 109.608 76.8054 109.426 76.5194 109.249C75.6883 108.735 74.8355 108.25 73.9751 107.787C72.6141 107.055 71.2239 106.373 69.817 105.733C67.9352 104.876 66.0177 104.093 64.0785 103.375C58.8595 101.442 53.4542 99.9694 47.9914 98.8993C42.3448 97.7938 36.6152 97.1173 30.8665 96.8253C30.8601 96.8266 30.8537 96.8253 30.8473 96.824C29.2247 96.7415 27.6021 96.6895 25.9782 96.6679C25.9488 96.6679 25.9246 96.6425 25.9246 96.6133C25.9246 96.5841 25.9501 96.56 25.9795 96.56C27.5996 96.5816 29.2183 96.6336 30.8371 96.7162C31.0605 96.4724 31.2623 96.197 31.4486 95.9254C31.7014 95.5547 31.9363 95.1689 32.161 94.7805C32.7419 93.7739 33.2679 92.7242 33.7696 91.6771C34.3824 90.3976 34.9633 89.1017 35.5263 87.7994C36.1403 86.3803 36.7352 84.9523 37.3174 83.5193C38.6489 80.2433 39.9205 76.9393 41.155 73.6252C41.7218 72.1007 42.2861 70.5738 42.8312 69.0417C42.8414 69.0138 42.8721 68.9986 42.9002 69.0087C42.9283 69.0189 42.9436 69.0493 42.9334 69.0773C42.3882 70.6093 41.8252 72.1375 41.2571 73.662C40.0226 76.9774 38.7511 80.2813 37.4195 83.5599C36.8374 84.993 36.2425 86.4222 35.6271 87.8412C35.0628 89.1435 34.482 90.4408 33.8692 91.7215C33.3662 92.7712 32.8389 93.8234 32.2568 94.8325C32.0308 95.2235 31.7959 95.6119 31.5406 95.985C31.3657 96.2376 31.1793 96.4928 30.9763 96.7238Z" fill="#A7D1F3"/>
    <path fill-rule="evenodd" clip-rule="evenodd" d="M72.1072 11.2392C72.1021 11.238 72.097 11.2367 72.0919 11.2329C71.954 11.1529 71.7944 11.0831 71.6489 11.0222C71.2914 10.8737 70.9136 10.7607 70.5331 10.6922C69.4224 10.4916 68.3539 10.6871 67.4717 11.4182C67.1002 11.7267 66.841 12.1163 66.8474 12.6114C66.8538 13.1089 67.127 13.5925 67.4245 13.9771C67.7092 14.3465 68.0577 14.6828 68.4177 14.9786C68.5862 15.1182 68.7688 15.2604 68.9513 15.381C68.9756 15.3975 68.9833 15.4305 68.9667 15.4558C68.9501 15.48 68.9169 15.4876 68.8913 15.4711C68.705 15.348 68.5198 15.2033 68.3488 15.0611C67.9824 14.759 67.6287 14.4176 67.3389 14.0419C66.6393 13.1368 66.4223 12.1481 67.4028 11.3344C68.3092 10.583 69.4109 10.3799 70.5523 10.5856C70.9404 10.6554 71.3259 10.7709 71.691 10.9219C71.8391 10.9829 71.9987 11.0539 72.1391 11.1339C72.66 11.2253 73.1873 11.2875 73.7132 11.337C74.3413 11.3966 74.972 11.4373 75.6014 11.4677C77.0274 11.5363 78.4585 11.5553 79.8858 11.5515C82.1097 11.5464 84.3375 11.4868 86.5601 11.3954C87.3236 11.3636 88.0883 11.3306 88.8517 11.29C88.8594 11.2888 88.8658 11.2875 88.8734 11.2888C89.1262 11.2748 89.3777 11.2608 89.6292 11.2456C89.6586 11.2443 89.6841 11.2659 89.6866 11.2964C89.6879 11.3256 89.6662 11.3509 89.6356 11.3535C89.4083 11.3674 89.1798 11.3801 88.9526 11.3928C89.1568 11.7825 89.3534 12.1773 89.5475 12.572C89.9956 13.4846 90.4245 14.4087 90.8177 15.3454C91.1254 16.0791 91.4203 16.8343 91.6476 17.5959C91.765 17.9906 91.9093 18.5225 91.9361 18.9845C91.9642 18.9033 91.9923 18.8207 92.0191 18.7395C92.028 18.7116 92.0586 18.6964 92.0867 18.7052C92.1148 18.7141 92.1301 18.7446 92.1212 18.7725C92.0599 18.9591 91.9948 19.1457 91.9284 19.331C91.9284 19.3323 91.9284 19.3323 91.9272 19.3335C91.9233 19.3437 91.9157 19.3526 91.9067 19.3589C91.8965 19.3653 91.885 19.3691 91.8723 19.3678C91.8672 19.3678 91.862 19.3665 91.8582 19.364C91.848 19.3602 91.8391 19.3526 91.8327 19.3437C91.8263 19.3335 91.8225 19.3221 91.8237 19.3094C91.8467 19.0733 91.8161 18.8119 91.7765 18.5783C91.7216 18.2584 91.6374 17.9386 91.5442 17.6276C91.3169 16.8698 91.0246 16.1171 90.7182 15.3873C90.3262 14.4518 89.8973 13.5291 89.4505 12.619C89.25 12.2103 89.0458 11.8015 88.8351 11.3992C88.0793 11.4398 87.321 11.4728 86.5652 11.5033C84.3413 11.5947 82.1123 11.6543 79.8871 11.6594C78.4585 11.6632 77.0249 11.6442 75.5976 11.5756C74.9656 11.5451 74.3337 11.5045 73.7043 11.4449C73.1719 11.3941 72.6383 11.3319 72.1123 11.2392C72.1085 11.2392 72.1085 11.2392 72.1072 11.2392Z" fill="white"/>
    <path d="M91.8749 19.3958C91.8723 19.3958 91.8698 19.3958 91.8659 19.3958C91.8583 19.3945 91.8506 19.3932 91.8442 19.3907C91.8289 19.3843 91.8149 19.3742 91.8059 19.359C91.7957 19.3437 91.7906 19.3247 91.7932 19.3069C91.8123 19.1127 91.797 18.8817 91.7459 18.5834C91.6974 18.3042 91.6247 18.0033 91.5149 17.6365C91.3208 16.9866 91.0668 16.2974 90.6901 15.4C90.3301 14.5433 89.9165 13.6382 89.4237 12.633C89.2603 12.3004 89.0445 11.865 88.816 11.4297C88.1649 11.4639 87.4692 11.4957 86.564 11.5338C84.1129 11.634 81.9272 11.6848 79.8846 11.6899C78.2237 11.6937 76.8602 11.667 75.5938 11.6061C74.8916 11.5718 74.2725 11.5299 73.6993 11.4754C73.0775 11.417 72.5707 11.351 72.1047 11.2697H72.1009C72.0932 11.2685 72.0843 11.2647 72.0779 11.2609C71.9285 11.1745 71.7549 11.0997 71.6375 11.0514C71.2736 10.9004 70.8996 10.7899 70.5268 10.7227C69.3612 10.512 68.3105 10.7608 67.4884 11.4424C67.0747 11.7851 66.8679 12.1786 66.8743 12.6139C66.8794 13.0264 67.0722 13.4796 67.445 13.9632C67.7016 14.2957 68.0348 14.6308 68.4344 14.9608C68.6399 15.1297 68.8084 15.2579 68.9654 15.3619C68.9833 15.3734 68.9961 15.3924 68.9999 15.414C69.0038 15.4356 68.9999 15.4571 68.9884 15.4749C68.9629 15.5117 68.9118 15.5219 68.8748 15.4978C68.7127 15.3899 68.5391 15.2591 68.3297 15.0865C67.9199 14.7489 67.579 14.4049 67.3147 14.0622C66.4862 12.9896 66.5092 12.0402 67.3824 11.3167C68.2429 10.6034 69.3395 10.3432 70.5549 10.5615C70.9391 10.6313 71.3247 10.7443 71.6988 10.9004C71.8851 10.9778 72.0281 11.0451 72.1456 11.1123C72.6026 11.1923 73.1018 11.257 73.7133 11.3142C74.2814 11.3675 74.8993 11.4106 75.6002 11.4436C76.8628 11.5046 78.2237 11.5299 79.8821 11.5274C81.9221 11.5223 84.1052 11.4716 86.5551 11.3713C87.4743 11.3332 88.1803 11.3015 88.8467 11.2659C88.8518 11.2634 88.8633 11.2634 88.8735 11.2647C89.1199 11.2507 89.3714 11.2367 89.6241 11.2215C89.6459 11.2202 89.6676 11.2279 89.6829 11.2418C89.6995 11.2558 89.7097 11.2761 89.711 11.2977C89.7135 11.3421 89.679 11.3814 89.6344 11.384C89.4212 11.3967 89.208 11.4094 88.9935 11.4208C89.1633 11.7457 89.342 12.1011 89.568 12.5632C90.062 13.5697 90.4769 14.4772 90.8382 15.3391C91.2174 16.2428 91.474 16.9384 91.6693 17.5921C91.7702 17.9285 91.903 18.4108 91.9476 18.8525C91.9604 18.8132 91.9745 18.7738 91.9872 18.7345C91.9936 18.7142 92.0089 18.6977 92.0281 18.6875C92.0472 18.6773 92.0702 18.6761 92.0906 18.6824C92.1111 18.6888 92.1277 18.704 92.1379 18.723C92.1481 18.7421 92.1494 18.7649 92.143 18.7852C92.0804 18.9744 92.014 19.1648 91.9502 19.3437C91.9425 19.3628 91.9323 19.3755 91.917 19.3856C91.9068 19.3907 91.8915 19.3958 91.8749 19.3958ZM88.8492 11.37L88.8582 11.3865C89.0905 11.8282 89.3088 12.2712 89.4748 12.6076C89.9676 13.6129 90.3825 14.5191 90.7425 15.3772C91.1204 16.2771 91.3744 16.9689 91.5698 17.62C91.6795 17.9894 91.7536 18.2927 91.8021 18.5745C91.8545 18.8792 91.8698 19.1127 91.8506 19.3133C91.8506 19.3196 91.8519 19.3247 91.8545 19.3298C91.857 19.3348 91.8621 19.3374 91.8672 19.3399L91.8749 19.3412C91.8825 19.3412 91.8876 19.3399 91.8915 19.3374C91.8966 19.3348 91.8991 19.3298 91.9017 19.3247C91.9655 19.1444 92.0319 18.9553 92.0945 18.7649C92.097 18.7586 92.0957 18.751 92.0932 18.7446C92.0906 18.7383 92.0843 18.7332 92.0779 18.7319C92.0715 18.7294 92.0638 18.7307 92.0574 18.7332C92.0511 18.7357 92.0459 18.7421 92.0447 18.7484C92.0179 18.8309 91.9898 18.9122 91.9617 18.9947L91.9157 19.1279L91.9081 18.9871C91.8813 18.5174 91.7306 17.9729 91.6208 17.6048C91.4255 16.9524 91.1702 16.2593 90.7923 15.3569C90.431 14.4963 90.0161 13.59 89.5233 12.5847C89.2884 12.1049 89.1046 11.7406 88.9297 11.4056L88.9092 11.3675L88.9526 11.3649C89.1799 11.3522 89.4084 11.3396 89.6356 11.3256C89.6497 11.3243 89.6612 11.3129 89.6599 11.2977C89.6599 11.2913 89.6561 11.285 89.651 11.2799C89.6459 11.2748 89.6395 11.2723 89.6318 11.2735C89.3803 11.2888 89.1275 11.3027 88.876 11.3167C88.8671 11.3154 88.8633 11.3154 88.8607 11.3167C88.1892 11.3535 87.4832 11.3852 86.5628 11.4233C84.1116 11.5236 81.9285 11.5744 79.8872 11.5794C78.2275 11.5833 76.8653 11.5566 75.6015 11.4957C74.8993 11.4614 74.2814 11.4195 73.712 11.3649C73.0967 11.3065 72.5962 11.2418 72.1354 11.1618L72.1264 11.158C72.0103 11.092 71.8685 11.0248 71.6822 10.9473C71.3106 10.7938 70.9302 10.6808 70.5498 10.6122C69.351 10.3952 68.2697 10.6529 67.4233 11.3548C66.3547 12.2407 66.8015 13.2943 67.3633 14.0228C67.625 14.3617 67.9633 14.7032 68.3693 15.0383C68.5774 15.2096 68.7497 15.3404 68.9093 15.4457C68.9208 15.4533 68.9374 15.4508 68.945 15.4381C68.9489 15.4318 68.9501 15.4254 68.9489 15.4191C68.9476 15.4127 68.9437 15.4064 68.9374 15.4026C68.7791 15.2972 68.608 15.169 68.4012 14.9977C67.9978 14.6651 67.662 14.3262 67.4028 13.9911C67.0211 13.4974 66.8258 13.0328 66.8207 12.6088C66.8143 12.157 67.0288 11.7483 67.4552 11.3941C68.2901 10.7024 69.3561 10.4498 70.5396 10.663C70.9162 10.7303 71.2941 10.8433 71.6617 10.9956C71.7805 11.0451 71.9566 11.12 72.1086 11.2088C72.1111 11.2101 72.1137 11.2114 72.1162 11.2114C72.5822 11.2939 73.0865 11.3586 73.7069 11.417C74.2789 11.4703 74.898 11.5134 75.5989 11.5477C76.8641 11.6086 78.2275 11.6353 79.8872 11.6315C81.9298 11.6264 84.1141 11.5756 86.564 11.4754C87.4768 11.4386 88.1764 11.4056 88.8326 11.3713L88.8492 11.37Z" fill="#F0A38B"/>
    <path fill-rule="evenodd" clip-rule="evenodd" d="M80.3867 54.3285C80.6446 52.0337 80.9242 49.7413 81.2293 47.4528C81.3659 46.4259 81.505 45.3978 81.6595 44.3735C81.6634 44.3468 81.6851 44.3278 81.7119 44.3278L82.2634 44.3163C82.16 43.6563 82.0655 42.9925 81.98 42.3299C81.9366 41.9872 81.8944 41.6432 81.8612 41.3005C81.8357 41.0454 81.8102 40.7776 81.8102 40.5212C81.8102 40.2153 81.8714 39.884 81.9417 39.5882C82.0527 39.116 82.2098 38.6489 82.3834 38.1958C82.6247 37.5713 82.9068 36.9608 83.2119 36.3655C83.6064 35.5976 84.0418 34.8487 84.5039 34.1188C84.5192 34.0934 84.5537 34.0858 84.5779 34.1023C84.6035 34.1176 84.6111 34.1518 84.5945 34.176C84.1349 34.9033 83.7009 35.6483 83.3077 36.4137C83.0038 37.0065 82.723 37.6132 82.483 38.2339C82.3106 38.6819 82.1549 39.1452 82.0451 39.6123C81.9774 39.9005 81.9161 40.2241 81.9161 40.5212C81.9161 40.7737 81.9417 41.0378 81.9659 41.2891C81.9991 41.6318 82.0412 41.9745 82.0846 42.3159C82.1702 42.9823 82.2647 43.65 82.3693 44.3138L88.8649 44.1767C88.893 44.1767 88.9173 44.197 88.9198 44.225C89.0475 45.4041 89.1675 46.5846 89.2862 47.765C89.5913 50.7847 89.8799 53.8069 90.1543 56.8291C90.5041 60.6814 90.8297 64.5375 91.1259 68.3936C91.1284 68.4228 91.1054 68.4495 91.0761 68.4507C91.0467 68.4533 91.0199 68.4304 91.0186 68.4012C90.7224 64.5451 90.3969 60.6903 90.0471 56.8379C89.7726 53.8158 89.4841 50.7936 89.179 47.7739C89.0615 46.61 88.9428 45.446 88.8177 44.2833L81.7553 44.4331C81.6033 45.4422 81.4667 46.4551 81.3327 47.4655C81.0212 49.8099 80.7352 52.1581 80.4722 54.5088C80.4773 54.524 80.4748 54.5393 80.4671 54.5519C80.4352 54.8337 80.4046 55.1168 80.3739 55.3986C79.9667 59.1176 79.6143 62.8442 79.3271 66.5747C78.999 70.837 78.7564 75.1094 78.6364 79.3832C78.5381 82.9118 78.5241 86.4481 78.6466 89.9767C78.7054 91.6522 78.796 93.3289 78.93 95.0006C79.0564 96.5694 79.2199 98.1357 79.4394 99.6931C79.6399 101.119 79.8875 102.54 80.2054 103.944C80.4876 105.192 80.8272 106.434 81.2574 107.641C81.9225 109.51 82.8889 111.528 84.3354 112.928C84.3571 112.948 84.3571 112.983 84.3367 113.004C84.3162 113.026 84.2818 113.026 84.2601 113.006C82.8008 111.594 81.8268 109.563 81.1552 107.678C80.7237 106.467 80.3829 105.221 80.0995 103.968C79.7816 102.56 79.5339 101.136 79.3322 99.7084C79.1126 98.1484 78.9479 96.5796 78.8228 95.0095C78.6888 93.3365 78.5981 91.6585 78.5394 89.9818C78.4156 86.4519 78.4309 82.9131 78.5292 79.3819C78.6479 75.1069 78.8918 70.8332 79.2199 66.5684C79.5071 62.8366 79.8582 59.1087 80.2667 55.3884C80.2986 55.1015 80.3305 54.8147 80.3625 54.5278C79.5926 52.8942 77.8551 51.4955 76.378 50.5118C74.961 49.5674 73.4213 48.7551 71.8727 48.0468C71.3506 47.8082 70.8221 47.5797 70.2897 47.3639C70.0816 47.2802 69.8722 47.1964 69.6616 47.119C69.6335 47.1088 69.6195 47.0783 69.6297 47.0504L71.7515 40.7217C71.5638 40.4983 71.3851 40.2533 71.2165 40.0172C70.7557 39.3712 70.3331 38.6921 69.9463 37.9978C68.6901 35.7423 67.79 33.2671 67.3432 30.726C67.3381 30.6968 67.3572 30.6689 67.3866 30.6638C67.416 30.6587 67.4441 30.6778 67.4492 30.707C67.8947 33.2354 68.7909 35.7004 70.0408 37.9445C70.425 38.6337 70.845 39.3102 71.3046 39.9538C71.477 40.1949 71.6608 40.4475 71.8536 40.6735C71.86 40.6811 71.8638 40.6887 71.8651 40.6976C71.8664 40.7065 71.8664 40.7154 71.8638 40.7255L69.7484 47.0352C69.9437 47.1075 70.1378 47.185 70.3306 47.2637C70.8642 47.4794 71.394 47.7092 71.9187 47.9478C73.4737 48.6586 75.0184 49.4735 76.4393 50.4204C77.8896 51.3876 79.5748 52.7407 80.3867 54.3285Z" fill="#F0A38B"/>
    <path d="M84.3005 113.047C84.2788 113.047 84.2584 113.039 84.2431 113.024C83.0009 111.822 81.9834 110.077 81.1319 107.687C80.7336 106.567 80.3876 105.352 80.0761 103.974C79.7787 102.658 79.5272 101.263 79.3089 99.7117C79.1008 98.2342 78.9335 96.6971 78.7982 95.0102C78.6693 93.4096 78.5773 91.7646 78.5148 89.9813C78.3999 86.7077 78.3961 83.24 78.5046 79.3801C78.6169 75.3399 78.8429 71.1487 79.1952 66.5653C79.4735 62.9453 79.8259 59.1831 80.2421 55.3854C80.2727 55.101 80.3046 54.8167 80.3366 54.5324C79.7161 53.2225 78.3807 51.8783 76.3662 50.5341C75.0666 49.6672 73.5933 48.8625 71.8647 48.0717C71.3298 47.8267 70.7974 47.597 70.283 47.3901C70.094 47.3139 69.8732 47.2251 69.6561 47.1451C69.614 47.1299 69.5923 47.0829 69.6076 47.041L71.7243 40.7263C71.5392 40.5054 71.3617 40.2617 71.197 40.032C70.7566 39.4151 70.3289 38.7348 69.9255 38.01C68.6399 35.7024 67.7641 33.2527 67.3199 30.7293C67.316 30.7077 67.3211 30.6862 67.3339 30.6684C67.3467 30.6506 67.3658 30.6392 67.3862 30.6354C67.4309 30.6278 67.4731 30.657 67.4807 30.7014C67.9212 33.2057 68.7918 35.6389 70.0685 37.93C70.4694 38.6497 70.8932 39.3237 71.3311 39.9368C71.5022 40.1767 71.6873 40.4293 71.8788 40.6552C71.8877 40.6653 71.8941 40.678 71.8966 40.692C71.8992 40.706 71.8992 40.7212 71.8941 40.7339L69.7876 47.0182C69.9638 47.0842 70.1387 47.154 70.3455 47.2365C70.8613 47.4447 71.3962 47.6757 71.9337 47.9219C73.6699 48.7152 75.1508 49.525 76.4581 50.397C78.382 51.679 79.6982 52.9686 80.371 54.2328C80.6315 51.9176 80.9123 49.6355 81.2034 47.4485C81.3272 46.5168 81.4728 45.4354 81.6336 44.3692C81.64 44.3298 81.6732 44.3006 81.7128 44.2993L82.2324 44.2879C82.1315 43.6431 82.0383 42.9856 81.9541 42.3319C81.9004 41.9194 81.8647 41.6021 81.8353 41.3013C81.8124 41.0715 81.7843 40.7847 81.7843 40.5194C81.7843 40.2604 81.8264 39.9622 81.9158 39.5801C82.0153 39.1549 82.1609 38.6992 82.3588 38.1839C82.5835 37.6013 82.8554 37.0009 83.1886 36.351C83.5626 35.6199 83.9865 34.885 84.4818 34.1018C84.4933 34.0841 84.5112 34.0714 84.5329 34.0663C84.5546 34.0612 84.5763 34.065 84.5942 34.0764C84.6133 34.0879 84.6261 34.1056 84.6299 34.1272C84.635 34.1488 84.6312 34.1704 84.6197 34.1881C84.1269 34.9662 83.7069 35.6973 83.3341 36.4246C83.0035 37.0707 82.7341 37.6647 82.5107 38.2423C82.3154 38.75 82.1724 39.1993 82.0741 39.6169C81.9873 39.9875 81.9464 40.2744 81.9464 40.5194C81.9464 40.7771 81.9732 41.0474 81.9962 41.2848C82.0256 41.5818 82.0626 41.8978 82.1149 42.3104C82.1992 42.9691 82.2937 43.633 82.3958 44.2841L88.8671 44.147C88.9092 44.1458 88.9463 44.1775 88.9501 44.2194C89.0829 45.4506 89.2092 46.692 89.3165 47.7594C89.6127 50.6966 89.905 53.7467 90.1846 56.8247C90.5459 60.8091 90.8727 64.6994 91.1561 68.3906C91.1574 68.4121 91.151 68.4337 91.137 68.4502C91.1229 68.4667 91.1025 68.4769 91.0808 68.4781C91.0591 68.4794 91.0374 68.4731 91.0208 68.4591C91.0042 68.4451 90.994 68.4248 90.9927 68.4032C90.7093 64.7109 90.3825 60.8205 90.0212 56.84C89.7416 53.7594 89.4493 50.7106 89.1531 47.7772C89.0484 46.7339 88.9246 45.5204 88.7943 44.3133L81.7817 44.4618C81.626 45.5026 81.483 46.56 81.363 47.4713C81.0617 49.7357 80.7719 52.103 80.5025 54.5083C80.5063 54.5261 80.5051 54.5451 80.4961 54.5616C80.4642 54.8421 80.4336 55.1226 80.4029 55.4031C79.9868 59.2009 79.6344 62.9605 79.3561 66.578C79.0037 71.1589 78.779 75.3476 78.6667 79.3852C78.5595 83.2413 78.5633 86.7065 78.6769 89.9762C78.7395 91.757 78.8314 93.4007 78.9603 94.9988C79.0957 96.6819 79.2616 98.2165 79.4697 99.6901C79.688 101.236 79.9382 102.626 80.2344 103.938C80.5446 105.311 80.8893 106.519 81.2851 107.632C82.1162 109.965 83.149 111.74 84.3567 112.907C84.372 112.923 84.381 112.943 84.381 112.964C84.381 112.986 84.3733 113.006 84.358 113.023C84.3439 113.038 84.3235 113.047 84.3005 113.047C84.3018 113.047 84.3018 113.047 84.3005 113.047ZM67.3977 30.6912C67.3965 30.6912 67.3952 30.6912 67.3926 30.6912C67.3862 30.6925 67.3799 30.6963 67.376 30.7014C67.3722 30.7077 67.3709 30.7141 67.3722 30.7204C67.8152 33.2374 68.6897 35.6808 69.9727 37.9833C70.3749 38.7056 70.8026 39.3846 71.2417 40.0002C71.4077 40.2338 71.5877 40.48 71.7754 40.7034L71.7856 40.7149L71.7805 40.7301L69.6587 47.0588C69.6536 47.0728 69.6612 47.0867 69.674 47.0918C69.8923 47.1718 70.1132 47.2606 70.3021 47.3368C70.8166 47.5449 71.3502 47.7747 71.8864 48.0196C73.6188 48.8104 75.0934 49.6177 76.3968 50.4859C78.4241 51.8377 79.7672 53.192 80.3902 54.5134L80.394 54.521L80.3927 54.5286C80.3608 54.8155 80.3289 55.1023 80.297 55.3892C79.8808 59.1869 79.5284 62.9478 79.2501 66.5679C78.8978 71.15 78.6718 75.3412 78.5595 79.3801C78.4522 83.2388 78.456 86.7052 78.5697 89.9775C78.6322 91.7608 78.7254 93.4045 78.8531 95.0051C78.9884 96.6895 79.1544 98.2266 79.3625 99.7028C79.5808 101.253 79.831 102.645 80.1297 103.96C80.4412 105.336 80.7859 106.549 81.1842 107.666C82.0319 110.048 83.0456 111.786 84.2814 112.982C84.2865 112.987 84.2916 112.992 84.3005 112.99C84.3069 112.99 84.3146 112.987 84.3184 112.982C84.3235 112.977 84.3261 112.971 84.3261 112.963C84.3261 112.957 84.3235 112.949 84.3184 112.945C83.0877 111.755 82.0792 110.022 81.234 107.649C80.837 106.533 80.4923 105.322 80.1808 103.949C79.8833 102.635 79.6331 101.244 79.4148 99.6952C79.2067 98.2203 79.0408 96.6844 78.9054 95.0001C78.7778 93.4007 78.6846 91.757 78.622 89.9749C78.5071 86.7039 78.5033 83.2375 78.6118 79.3801C78.7241 75.3425 78.9501 71.1525 79.3025 66.5704C79.5808 62.9516 79.9331 59.192 80.3493 55.393C80.38 55.1112 80.4119 54.8281 80.4425 54.5464L80.4463 54.5349C80.4502 54.5286 80.4515 54.521 80.4489 54.5146L80.4476 54.5096L80.4489 54.5032C80.7183 52.0954 81.0081 49.7256 81.3094 47.4599C81.4319 46.5422 81.5749 45.4747 81.7319 44.4263L81.7358 44.4034H81.7587L88.8467 44.2536L88.8492 44.279C88.9807 45.4963 89.1046 46.7186 89.2105 47.7696C89.5067 50.7029 89.7991 53.7531 90.0786 56.8336C90.4399 60.8141 90.7668 64.7058 91.0502 68.3982C91.0502 68.4045 91.054 68.4109 91.0591 68.4159C91.0642 68.421 91.0706 68.4223 91.0783 68.4223C91.0846 68.4223 91.091 68.4185 91.0961 68.4134C91.1012 68.4083 91.1025 68.402 91.1025 68.3944C90.8191 64.7045 90.4923 60.8129 90.131 56.8298C89.8514 53.7518 89.559 50.7029 89.2629 47.7658C89.1556 46.6983 89.0292 45.4569 88.8965 44.2257C88.8952 44.2118 88.8837 44.2041 88.8697 44.2029L82.3485 44.3412L82.3447 44.3171C82.2413 43.6583 82.1456 42.9856 82.06 42.318C82.0064 41.9055 81.9707 41.5881 81.9413 41.2911C81.9183 41.0512 81.8915 40.7796 81.8915 40.5194C81.8915 40.2693 81.9324 39.9787 82.0204 39.6042C82.1188 39.1841 82.263 38.7322 82.4596 38.222C82.683 37.6432 82.9537 37.0466 83.2856 36.3993C83.6584 35.6719 84.0797 34.9383 84.5737 34.1589C84.5776 34.1526 84.5789 34.1463 84.5776 34.1399C84.5763 34.1336 84.5725 34.1272 84.5661 34.1234C84.5597 34.1196 84.5533 34.1183 84.5469 34.1196C84.5405 34.1209 84.5342 34.1247 84.5303 34.131C84.0363 34.9129 83.6137 35.6466 83.2396 36.3751C82.9064 37.0237 82.6358 37.6216 82.4124 38.2029C82.2145 38.7144 82.0702 39.1689 81.9707 39.5915C81.8813 39.9698 81.8404 40.2643 81.8404 40.5181C81.8404 40.7809 81.8685 41.0652 81.8915 41.2949C81.9209 41.5945 81.9579 41.9118 82.0102 42.3243C82.0958 42.9882 82.1902 43.6558 82.2924 44.3108L82.2975 44.3425L81.7141 44.3552C81.7013 44.3552 81.6911 44.3641 81.6885 44.3768C81.5277 45.443 81.3821 46.5244 81.2583 47.4561C80.9634 49.671 80.68 51.9837 80.4157 54.3306L80.4055 54.4232L80.3634 54.3407C79.7072 53.06 78.3833 51.7488 76.4262 50.4453C75.1214 49.5745 73.6431 48.7673 71.9094 47.9752C71.3719 47.7302 70.8383 47.4992 70.3225 47.2911C70.1068 47.2035 69.9255 47.1311 69.7417 47.0639L69.7161 47.055L69.7251 47.0296L71.8392 40.7174C71.8405 40.7136 71.8405 40.7085 71.8405 40.7047C71.8392 40.7009 71.8379 40.6971 71.8354 40.6933C71.6426 40.4661 71.4562 40.2122 71.2851 39.971C70.8472 39.3567 70.4208 38.6802 70.02 37.9592C68.7408 35.6618 67.8675 33.2235 67.4258 30.7128C67.422 30.7001 67.4105 30.6912 67.3977 30.6912Z" fill="#A7D1F3"/>
    <path fill-rule="evenodd" clip-rule="evenodd" d="M86.9024 18.6621C86.9777 18.8601 87.0684 19.0594 87.1577 19.2511C87.3518 19.6649 87.5726 20.0774 87.828 20.4582C87.9799 20.6854 88.1471 20.9075 88.3373 21.1042C88.3578 21.1258 88.3565 21.1601 88.3361 21.1804C88.3144 21.2007 88.2799 21.2007 88.2595 21.1791C88.0654 20.9773 87.8931 20.7501 87.7386 20.5178C87.4807 20.132 87.2573 19.7156 87.0607 19.2968C86.9701 19.1026 86.8794 18.9007 86.8015 18.7002C86.7913 18.6723 86.8054 18.6418 86.8322 18.6304C86.8603 18.6202 86.8909 18.6342 86.9024 18.6621Z" fill="#3F4553"/>
    <path d="M88.2977 21.2985C88.2965 21.2985 88.2952 21.2985 88.2939 21.2985C88.2518 21.2972 88.2122 21.2807 88.1829 21.2502C88.0041 21.0636 87.8292 20.844 87.6505 20.575C87.4105 20.2157 87.1858 19.8121 86.9649 19.3399C86.85 19.0962 86.7696 18.9096 86.7032 18.7357C86.6879 18.6964 86.6892 18.6532 86.707 18.6152C86.7249 18.5771 86.7556 18.5479 86.7951 18.5327C86.8347 18.5174 86.8781 18.5187 86.9164 18.5365C86.9547 18.5542 86.9841 18.5847 86.9994 18.624C87.0632 18.7903 87.1411 18.9706 87.2522 19.2067C87.4666 19.6649 87.6837 20.0545 87.9148 20.3998C88.0845 20.6524 88.2467 20.8593 88.4126 21.0319C88.4727 21.0954 88.4714 21.1956 88.4075 21.2553C88.3782 21.2832 88.3399 21.2985 88.2977 21.2985Z" fill="#3F4553"/>
    <path fill-rule="evenodd" clip-rule="evenodd" d="M80.1617 16.4333C80.3532 16.4726 80.546 16.5082 80.7388 16.5424C81.1562 16.6173 81.5775 16.6846 81.9975 16.7379C82.272 16.7722 82.5491 16.8014 82.8261 16.8179C83.0431 16.8306 83.278 16.8369 83.4938 16.8115C83.5231 16.8077 83.5499 16.8293 83.5538 16.8585C83.5576 16.8877 83.5359 16.9143 83.5065 16.9181C83.2844 16.9448 83.0431 16.9372 82.8197 16.9245C82.5401 16.9093 82.2605 16.8788 81.9835 16.8445C81.5609 16.7912 81.1384 16.7239 80.7183 16.6491C80.5256 16.6148 80.3315 16.5792 80.1387 16.5399C80.1094 16.5336 80.0902 16.5056 80.0966 16.4764C80.1043 16.446 80.1336 16.4269 80.1617 16.4333Z" fill="#3F4553"/>
    <path d="M83.1657 17.04C83.0444 17.04 82.9244 17.0349 82.8159 17.0286C82.5656 17.0146 82.2975 16.9879 81.972 16.9473C81.5826 16.8978 81.1677 16.8344 80.7017 16.7506C80.5409 16.7214 80.3302 16.6833 80.1196 16.6401C80.0341 16.6224 79.9792 16.5386 79.9958 16.4536C80.0047 16.4117 80.0289 16.3761 80.0647 16.3533C80.1004 16.3304 80.1426 16.3228 80.1834 16.3304C80.3826 16.3711 80.5856 16.4079 80.7579 16.4396C81.2175 16.5221 81.6273 16.5856 82.0116 16.6338C82.3307 16.6744 82.5912 16.6998 82.8337 16.7125C83.0354 16.7239 83.2703 16.7328 83.4835 16.7074C83.5257 16.7023 83.5665 16.7138 83.601 16.7404C83.6342 16.7671 83.6559 16.8039 83.661 16.8458C83.6712 16.9321 83.6087 17.0108 83.5218 17.0209C83.4031 17.0349 83.2831 17.04 83.1657 17.04Z" fill="#3F4553"/>
    <path fill-rule="evenodd" clip-rule="evenodd" d="M86.1439 24.0921C86.1477 24.2444 86.1643 24.4044 86.1834 24.5541C86.2243 24.8765 86.2932 25.2053 86.4043 25.5112C86.5013 25.7765 86.6418 26.0544 86.8499 26.2499C86.8716 26.2702 86.8728 26.3045 86.8524 26.3261C86.832 26.3477 86.7975 26.3489 86.7758 26.3286C86.5537 26.1205 86.4056 25.8311 86.3022 25.548C86.1886 25.2358 86.1183 24.8981 86.0762 24.5681C86.0558 24.4145 86.0392 24.2508 86.0354 24.0947C86.0341 24.0655 86.0583 24.0401 86.0877 24.0401C86.1183 24.0388 86.1426 24.0629 86.1439 24.0921Z" fill="#3F4553"/>
    <path d="M86.8129 26.4467C86.7733 26.4467 86.735 26.4327 86.7044 26.4035C86.5014 26.2131 86.3329 25.9364 86.204 25.5835C86.098 25.2929 86.0201 24.9552 85.9716 24.5821C85.9474 24.3904 85.9333 24.2368 85.9308 24.0985C85.9295 24.0566 85.9448 24.016 85.9742 23.9855C86.0035 23.955 86.0431 23.9373 86.0852 23.9373C86.1274 23.9347 86.1682 23.9512 86.1989 23.9804C86.2295 24.0096 86.2474 24.049 86.2486 24.0909C86.2512 24.2178 86.264 24.3612 86.2869 24.5427C86.3316 24.8943 86.4044 25.2078 86.5027 25.4769C86.6138 25.7841 86.7555 26.0189 86.9214 26.175C86.9853 26.2347 86.9878 26.335 86.9278 26.3984C86.8972 26.4302 86.855 26.4467 86.8129 26.4467Z" fill="#3F4553"/>
    <path fill-rule="evenodd" clip-rule="evenodd" d="M77.367 20.4175C77.4717 20.4962 77.5904 20.5711 77.7027 20.6396C77.9913 20.8148 78.2964 20.9697 78.6079 21.1004C79.545 21.4964 80.5739 21.6944 81.5927 21.5802C81.6221 21.5764 81.6489 21.598 81.6527 21.6272C81.6565 21.6563 81.6348 21.683 81.6055 21.6868C80.5688 21.8036 79.522 21.603 78.567 21.1994C78.2504 21.0661 77.9415 20.9087 77.6478 20.731C77.5329 20.6612 77.4104 20.5838 77.3031 20.5026C77.2789 20.4848 77.2751 20.4505 77.2929 20.4277C77.3095 20.4036 77.3427 20.3998 77.367 20.4175Z" fill="#3F4553"/>
    <path d="M81.017 21.8227C80.1999 21.8227 79.3497 21.6437 78.525 21.2946C78.1981 21.1563 77.8854 20.9964 77.593 20.8187C77.4832 20.7514 77.3543 20.6714 77.2394 20.5851C77.1692 20.5318 77.1564 20.4328 77.2087 20.3642C77.2343 20.3312 77.2713 20.3097 77.3134 20.3033C77.3556 20.297 77.3977 20.3084 77.4309 20.3338C77.5343 20.4125 77.6543 20.4874 77.7577 20.5496C78.036 20.7184 78.336 20.872 78.6488 21.004C79.628 21.4178 80.6416 21.5815 81.58 21.4761C81.6221 21.4711 81.663 21.4838 81.6961 21.5091C81.7293 21.5358 81.7498 21.5726 81.7549 21.6145C81.7651 21.7008 81.7025 21.7795 81.6157 21.7897C81.4191 21.8125 81.2187 21.8227 81.017 21.8227Z" fill="#3F4553"/>
    <path fill-rule="evenodd" clip-rule="evenodd" d="M75.9871 32.637C76.2105 32.7411 76.4709 32.9873 76.6279 33.1689C77.122 33.7388 77.4016 34.4813 77.5395 35.2124C77.5446 35.2416 77.5254 35.2695 77.4961 35.2746C77.4667 35.2797 77.4386 35.2607 77.4335 35.2315C77.2982 34.5194 77.0275 33.7933 76.5462 33.2387C76.4211 33.094 76.2781 32.9581 76.1224 32.8465C76.0688 32.8084 76.0024 32.7627 75.9424 32.7348C75.9156 32.7221 75.9041 32.6903 75.9169 32.6637C75.9271 32.6357 75.9603 32.6243 75.9871 32.637Z" fill="#3F4553"/>
    <path d="M77.487 35.3787C77.4117 35.3787 77.3453 35.3254 77.3313 35.2505C77.1807 34.4572 76.8819 33.7844 76.467 33.3059C76.3368 33.1561 76.2002 33.0292 76.061 32.9289C76.0176 32.8972 75.9525 32.8528 75.8976 32.8274C75.8593 32.8096 75.83 32.7779 75.8159 32.7385C75.8019 32.6992 75.8032 32.656 75.821 32.6179C75.8389 32.5799 75.8708 32.5507 75.9104 32.5367C75.95 32.5227 75.9934 32.524 76.0317 32.5418C76.2691 32.6522 76.536 32.9023 76.707 33.099C77.1641 33.627 77.4794 34.3302 77.6428 35.1908C77.6505 35.2327 77.6415 35.2746 77.6185 35.3088C77.5943 35.3431 77.5585 35.3672 77.5164 35.3749C77.5062 35.3787 77.496 35.3787 77.487 35.3787ZM75.9844 32.6395C75.9844 32.6395 75.9857 32.6395 75.9844 32.6395C75.9857 32.6395 75.9844 32.6395 75.9844 32.6395Z" fill="#3F4553"/>
    <path fill-rule="evenodd" clip-rule="evenodd" d="M83.7809 26.2283C83.5256 27.0458 83.2575 27.8632 82.9766 28.673C82.789 29.215 82.5937 29.7633 82.3741 30.2926C82.2987 30.4741 82.2183 30.662 82.1238 30.8333C82.0855 30.9031 81.9987 31.0618 81.9081 31.072C81.6502 31.0999 81.386 30.9971 81.1702 30.8651C80.754 30.6112 80.3902 30.1885 80.108 29.8001C80.0902 29.776 80.0965 29.743 80.1195 29.7252C80.1438 29.7075 80.177 29.7138 80.1948 29.7367C80.468 30.1124 80.8242 30.5274 81.2264 30.7724C81.4217 30.8905 81.663 30.9895 81.8953 30.9641C81.9336 30.9514 82.0217 30.794 82.0409 30.7584C82.1328 30.5884 82.2107 30.4043 82.2847 30.2253C82.5005 29.7049 82.6907 29.1668 82.8758 28.6349C83.1567 27.8264 83.4235 27.0102 83.6788 26.1941C83.6877 26.1661 83.7184 26.1496 83.7465 26.1585C83.7745 26.1699 83.7899 26.2004 83.7809 26.2283Z" fill="#3F4553"/>
    <path d="M81.8226 31.1824C81.603 31.1824 81.3604 31.105 81.1153 30.9565C80.7566 30.7381 80.3991 30.3802 80.0225 29.8636C79.9983 29.8293 79.9881 29.7874 79.9944 29.7468C80.0008 29.7049 80.0238 29.6681 80.0583 29.644C80.1298 29.5932 80.2281 29.6085 80.2804 29.6796C80.6264 30.1543 80.9634 30.4932 81.2813 30.6874C81.4281 30.7762 81.6439 30.8778 81.852 30.8663C81.8749 30.8372 81.9158 30.7737 81.9477 30.7128C82.0396 30.5427 82.1188 30.3535 82.1877 30.1898C82.4098 29.6516 82.6077 29.0893 82.7762 28.6057C83.0494 27.8175 83.3201 26.9975 83.578 26.1674C83.5907 26.1268 83.6176 26.0938 83.6559 26.0747C83.6929 26.0544 83.7363 26.0506 83.7771 26.0633C83.8167 26.076 83.8499 26.1027 83.8703 26.1408C83.8908 26.1776 83.8946 26.2207 83.8818 26.2613C83.6227 27.094 83.3507 27.9178 83.0763 28.7085C82.9039 29.2074 82.6997 29.7849 82.4711 30.3345C82.3958 30.5148 82.3141 30.7064 82.2158 30.8854C82.1354 31.0301 82.046 31.1634 81.9209 31.1773C81.8877 31.1799 81.8558 31.1824 81.8226 31.1824Z" fill="#3F4553"/>
</svg>
