<svg width="415" height="492" viewBox="0 0 415 492" fill="none" xmlns="http://www.w3.org/2000/svg">
    <circle cx="207" cy="246" r="246" fill="#9AA2FD"/>
    <circle cx="207" cy="246" r="246" fill="#949DFF"/>
    <circle cx="207.5" cy="255" r="211" fill="#9AA2FD"/>
    <circle cx="207.5" cy="255" r="211" fill="#99A1FF"/>
    <circle cx="207.5" cy="255" r="177" fill="#9AA2FD"/>
    <circle cx="207.5" cy="255" r="177" fill="#9EA6FF"/>
    <path d="M296.9 64C295.329 55.7727 286.645 51.5733 282.5 50.5021C292.449 47.931 297.118 55.8584 298.209 60.1434C309.205 53.973 316.318 58.0009 318.5 60.7862C310.122 58.2152 300.609 61.8575 296.9 64Z" fill="#B4BAFF"/>
    <path d="M62.3 80C61.34 75.2987 56.0333 72.899 53.5 72.2869C59.58 70.8177 62.4333 75.3477 63.1 77.7963C69.82 74.2703 74.1667 76.572 75.5 78.1635C70.38 76.6944 64.5667 78.7757 62.3 80Z" fill="#B4BAFF"/>
    <circle cx="207.5" cy="255" r="142" fill="#A3ABFF"/>
    <path d="M345.748 101.025C297.749 87.5251 304.748 128.025 314.748 128.025C318.857 128.025 327.373 129.025 337.749 129.025H369.249C409.248 129.025 420.749 126.358 421.249 125.525C424.749 99.0251 403.582 101.525 392.249 104.525C394.082 94.6918 392.149 74.8252 369.748 74.0252C347.348 73.2252 344.415 91.6918 345.748 101.025Z" fill="#B4BAFF"/>
    <path d="M8.25573 25.7874C-12.7717 19.8992 -9.70541 37.5638 -5.3247 37.5638C-3.5249 37.5638 0.205866 38 4.75144 38H18.5509C36.0738 38 41.1117 36.8369 41.331 36.4734C42.8643 24.9151 33.5916 26.0055 28.6267 27.314C29.4299 23.025 28.5828 14.3599 18.7696 14.011C8.95638 13.662 7.67151 21.7165 8.25573 25.7874Z" fill="#A6ADFB"/>
</svg>
