<svg width="375" height="64" viewBox="0 0 375 64" fill="none" xmlns="http://www.w3.org/2000/svg">
    <rect x="1.26111" y="0.966064" width="373" height="62" rx="31" stroke="#EBEAEC"/>
    <path d="M102.973 31.1481H101.223C100.887 29.8227 100.056 29.1601 98.7306 29.1601C97.732 29.1601 96.9573 29.5567 96.4066 30.3501C95.9306 31.0407 95.6926 31.9134 95.6926 32.9681C95.6926 34.0227 95.9306 34.8954 96.4066 35.5861C96.9573 36.3794 97.732 36.7761 98.7306 36.7761C99.4773 36.7761 100.079 36.5194 100.537 36.0061C100.957 35.5394 101.204 34.9234 101.279 34.1581H102.987C102.912 35.3621 102.483 36.3374 101.699 37.0841C100.924 37.8307 99.9346 38.2041 98.7306 38.2041C97.2746 38.2041 96.1033 37.6861 95.2166 36.6501C94.3673 35.6701 93.9426 34.4427 93.9426 32.9681C93.9426 31.4841 94.3673 30.2521 95.2166 29.2721C96.1033 28.2454 97.2746 27.7321 98.7306 27.7321C99.8786 27.7321 100.84 28.0307 101.615 28.6281C102.417 29.2534 102.87 30.0934 102.973 31.1481ZM109.534 27.7321C110.99 27.7321 112.161 28.2454 113.048 29.2721C113.897 30.2614 114.322 31.4934 114.322 32.9681C114.322 34.4427 113.897 35.6701 113.048 36.6501C112.161 37.6861 110.99 38.2041 109.534 38.2041C108.078 38.2041 106.907 37.6861 106.02 36.6501C105.171 35.6701 104.746 34.4427 104.746 32.9681C104.746 31.4934 105.171 30.2614 106.02 29.2721C106.907 28.2454 108.078 27.7321 109.534 27.7321ZM109.534 29.1601C108.535 29.1601 107.761 29.5567 107.21 30.3501C106.734 31.0407 106.496 31.9134 106.496 32.9681C106.496 34.0227 106.734 34.8954 107.21 35.5861C107.761 36.3794 108.535 36.7761 109.534 36.7761C110.533 36.7761 111.307 36.3794 111.858 35.5861C112.334 34.8954 112.572 34.0227 112.572 32.9681C112.572 31.9134 112.334 31.0407 111.858 30.3501C111.307 29.5567 110.533 29.1601 109.534 29.1601ZM116.545 37.9661V27.9701H118.393L122.957 35.3341H122.985V27.9701H124.651V37.9661H122.803L118.253 30.6161H118.211V37.9661H116.545ZM126.466 29.4821V27.9701H134.558V29.4821H131.38V37.9661H129.63V29.4821H126.466ZM136.417 37.9661V27.9701H138.167V37.9661H136.417ZM140.944 37.9661V27.9701H142.792L147.356 35.3341H147.384V27.9701H149.05V37.9661H147.202L142.652 30.6161H142.61V37.9661H140.944ZM151.705 34.3681V27.9701H153.455V33.7941C153.455 34.6994 153.563 35.3481 153.777 35.7401C154.123 36.3747 154.799 36.6921 155.807 36.6921C156.815 36.6921 157.492 36.3747 157.837 35.7401C158.052 35.3481 158.159 34.6994 158.159 33.7941V27.9701H159.909V34.3681C159.909 35.6187 159.536 36.5801 158.789 37.2521C158.071 37.8867 157.077 38.2041 155.807 38.2041C154.538 38.2041 153.549 37.8867 152.839 37.2521C152.083 36.5801 151.705 35.6187 151.705 34.3681ZM162.621 37.9661V27.9701H169.817V29.4821H164.371V32.1001H169.411V33.5281H164.371V36.4541H169.915V37.9661H162.621ZM178.388 37.9661L175.756 27.9701H177.534L179.34 35.6141H179.368L181.384 27.9701H183.176L185.136 35.6141H185.164L187.026 27.9701H188.804L186.046 37.9661H184.268L182.266 30.3221H182.238L180.194 37.9661H178.388ZM190.656 37.9661V27.9701H192.406V37.9661H190.656ZM194.301 29.4821V27.9701H202.393V29.4821H199.215V37.9661H197.465V29.4821H194.301ZM204.21 37.9661V27.9701H205.96V31.9461H210.51V27.9701H212.26V37.9661H210.51V33.4581H205.96V37.9661H204.21ZM228.374 32.7021V37.9661H227.254L226.988 36.7901C226.53 37.3127 226.068 37.6814 225.602 37.8961C225.144 38.1014 224.603 38.2041 223.978 38.2041C222.522 38.2041 221.35 37.6861 220.464 36.6501C219.614 35.6701 219.19 34.4427 219.19 32.9681C219.19 31.4934 219.614 30.2614 220.464 29.2721C221.35 28.2454 222.522 27.7321 223.978 27.7321C225.116 27.7321 226.068 28.0214 226.834 28.6001C227.655 29.2067 228.131 30.0561 228.262 31.1481H226.554C226.47 30.5134 226.176 30.0187 225.672 29.6641C225.205 29.3281 224.64 29.1601 223.978 29.1601C222.979 29.1601 222.204 29.5567 221.654 30.3501C221.178 31.0407 220.94 31.9134 220.94 32.9681C220.94 34.0227 221.178 34.8954 221.654 35.5861C222.195 36.3701 222.97 36.7667 223.978 36.7761C224.864 36.7854 225.546 36.5474 226.022 36.0621C226.507 35.5674 226.759 34.8907 226.778 34.0321H224.118V32.7021H228.374ZM235.231 27.7321C236.687 27.7321 237.858 28.2454 238.745 29.2721C239.594 30.2614 240.019 31.4934 240.019 32.9681C240.019 34.4427 239.594 35.6701 238.745 36.6501C237.858 37.6861 236.687 38.2041 235.231 38.2041C233.775 38.2041 232.603 37.6861 231.717 36.6501C230.867 35.6701 230.443 34.4427 230.443 32.9681C230.443 31.4934 230.867 30.2614 231.717 29.2721C232.603 28.2454 233.775 27.7321 235.231 27.7321ZM235.231 29.1601C234.232 29.1601 233.457 29.5567 232.907 30.3501C232.431 31.0407 232.193 31.9134 232.193 32.9681C232.193 34.0227 232.431 34.8954 232.907 35.5861C233.457 36.3794 234.232 36.7761 235.231 36.7761C236.229 36.7761 237.004 36.3794 237.555 35.5861C238.031 34.8954 238.269 34.0227 238.269 32.9681C238.269 31.9134 238.031 31.0407 237.555 30.3501C237.004 29.5567 236.229 29.1601 235.231 29.1601ZM246.567 27.7321C248.023 27.7321 249.195 28.2454 250.081 29.2721C250.931 30.2614 251.355 31.4934 251.355 32.9681C251.355 34.4427 250.931 35.6701 250.081 36.6501C249.195 37.6861 248.023 38.2041 246.567 38.2041C245.111 38.2041 243.94 37.6861 243.053 36.6501C242.204 35.6701 241.779 34.4427 241.779 32.9681C241.779 31.4934 242.204 30.2614 243.053 29.2721C243.94 28.2454 245.111 27.7321 246.567 27.7321ZM246.567 29.1601C245.569 29.1601 244.794 29.5567 244.243 30.3501C243.767 31.0407 243.529 31.9134 243.529 32.9681C243.529 34.0227 243.767 34.8954 244.243 35.5861C244.794 36.3794 245.569 36.7761 246.567 36.7761C247.566 36.7761 248.341 36.3794 248.891 35.5861C249.367 34.8954 249.605 34.0227 249.605 32.9681C249.605 31.9134 249.367 31.0407 248.891 30.3501C248.341 29.5567 247.566 29.1601 246.567 29.1601ZM262.37 32.7021V37.9661H261.25L260.984 36.7901C260.527 37.3127 260.065 37.6814 259.598 37.8961C259.141 38.1014 258.599 38.2041 257.974 38.2041C256.518 38.2041 255.347 37.6861 254.46 36.6501C253.611 35.6701 253.186 34.4427 253.186 32.9681C253.186 31.4934 253.611 30.2614 254.46 29.2721C255.347 28.2454 256.518 27.7321 257.974 27.7321C259.113 27.7321 260.065 28.0214 260.83 28.6001C261.651 29.2067 262.127 30.0561 262.258 31.1481H260.55C260.466 30.5134 260.172 30.0187 259.668 29.6641C259.201 29.3281 258.637 29.1601 257.974 29.1601C256.975 29.1601 256.201 29.5567 255.65 30.3501C255.174 31.0407 254.936 31.9134 254.936 32.9681C254.936 34.0227 255.174 34.8954 255.65 35.5861C256.191 36.3701 256.966 36.7667 257.974 36.7761C258.861 36.7854 259.542 36.5474 260.018 36.0621C260.503 35.5674 260.755 34.8907 260.774 34.0321H258.114V32.7021H262.37ZM264.971 37.9661V27.9701H266.721V36.4541H271.803V37.9661H264.971ZM273.71 37.9661V27.9701H280.906V29.4821H275.46V32.1001H280.5V33.5281H275.46V36.4541H281.004V37.9661H273.71Z" fill="#3F414E"/>
    <path d="M53.4108 32.2334C53.4108 31.2441 53.3305 30.5221 53.1568 29.7734H41.8596V34.2388H48.4908C48.3571 35.3485 47.6352 37.0196 46.0308 38.1426L46.0084 38.2921L49.5803 41.0592L49.8278 41.0839C52.1005 38.9849 53.4108 35.8966 53.4108 32.2334Z" fill="#4285F4"/>
    <path d="M41.8596 43.9984C45.1083 43.9984 47.8357 42.9288 49.8278 41.0839L46.0308 38.1426C45.0148 38.8511 43.6511 39.3458 41.8596 39.3458C38.6777 39.3458 35.9771 37.2469 35.0144 34.3457L34.8733 34.3577L31.1592 37.2321L31.1106 37.3672C33.0892 41.2977 37.1536 43.9984 41.8596 43.9984Z" fill="#34A853"/>
    <path d="M35.0144 34.3457C34.7604 33.5971 34.6134 32.7948 34.6134 31.966C34.6134 31.137 34.7604 30.3349 35.0011 29.5862L34.9943 29.4268L31.2336 26.5062L31.1106 26.5647C30.2951 28.1958 29.8271 30.0274 29.8271 31.966C29.8271 33.9045 30.2951 35.7361 31.1106 37.3672L35.0144 34.3457Z" fill="#FBBC05"/>
    <path d="M41.86 24.5861C44.1194 24.5861 45.6435 25.5621 46.5125 26.3777L49.9083 23.062C47.8228 21.1235 45.1087 19.9336 41.86 19.9336C37.1539 19.9336 33.0896 22.6342 31.111 26.5648L35.0014 29.5863C35.9775 26.6851 38.6781 24.5861 41.86 24.5861Z" fill="#EB4335"/>
</svg>
