<svg width="393" height="504" viewBox="0 0 393 504" fill="none" xmlns="http://www.w3.org/2000/svg">
    <g clip-path="url(#clip0_1_3662)">
        <path d="M-27 -1V381.053C-27 381.053 5.23509 449.788 88.1119 441.811C170.989 433.835 188.177 390.876 288.243 470.049C288.243 470.049 323.543 503.185 388 501.967V-1H-27Z" fill="#FAF8F5"/>
        <path d="M375.149 504C322.355 504 291.072 479.662 290.738 479.381C228.185 430.238 189.838 439.61 136.778 452.6C122.705 456.045 108.138 459.609 91.5285 462.6C10.3493 477.232 -29.5994 434.67 -30 434.23L-29.012 433.335C-28.6248 433.762 10.8967 475.777 91.2749 461.291C107.858 458.301 122.385 454.75 136.444 451.305C189.878 438.235 228.478 428.796 291.553 478.34C291.94 478.647 329.899 508.152 392.853 501.757L392.987 503.079C386.805 503.72 380.85 504 375.149 504Z" fill="#F9F0E3"/>
    </g>
    <defs>
        <clipPath id="clip0_1_3662">
            <rect width="423" height="504" fill="white" transform="translate(-30)"/>
        </clipPath>
    </defs>
</svg>
